<mxfile host="app.diagrams.net" modified="2020-12-08T09:30:46.434Z" agent="5.0 (Windows)" etag="uw8rij8-HKbZaeQPxK7u" version="13.11.0" type="github">
  <diagram id="C5RBs43oDa-KdzZeNtuy" name="Page-1">
    <mxGraphModel dx="981" dy="609" grid="1" gridSize="10" guides="1" tooltips="1" connect="1" arrows="1" fold="1" page="1" pageScale="1" pageWidth="4681" pageHeight="3300" math="0" shadow="0">
      <root>
        <mxCell id="WIyWlLk6GJQsqaUBKTNV-0" />
        <mxCell id="WIyWlLk6GJQsqaUBKTNV-1" parent="WIyWlLk6GJQsqaUBKTNV-0" />
        <mxCell id="zkfFHV4jXpPFQw0GAbJ--0" value="Person" style="swimlane;fontStyle=2;align=center;verticalAlign=top;childLayout=stackLayout;horizontal=1;startSize=26;horizontalStack=0;resizeParent=1;resizeLast=0;collapsible=1;marginBottom=0;rounded=0;shadow=0;strokeWidth=1;" parent="WIyWlLk6GJQsqaUBKTNV-1" vertex="1">
          <mxGeometry x="3890" y="360" width="160" height="138" as="geometry">
            <mxRectangle x="230" y="140" width="160" height="26" as="alternateBounds" />
          </mxGeometry>
        </mxCell>
        <mxCell id="zkfFHV4jXpPFQw0GAbJ--1" value="Name" style="text;align=left;verticalAlign=top;spacingLeft=4;spacingRight=4;overflow=hidden;rotatable=0;points=[[0,0.5],[1,0.5]];portConstraint=eastwest;" parent="zkfFHV4jXpPFQw0GAbJ--0" vertex="1">
          <mxGeometry y="26" width="160" height="26" as="geometry" />
        </mxCell>
        <mxCell id="zkfFHV4jXpPFQw0GAbJ--2" value="Phone Number" style="text;align=left;verticalAlign=top;spacingLeft=4;spacingRight=4;overflow=hidden;rotatable=0;points=[[0,0.5],[1,0.5]];portConstraint=eastwest;rounded=0;shadow=0;html=0;" parent="zkfFHV4jXpPFQw0GAbJ--0" vertex="1">
          <mxGeometry y="52" width="160" height="26" as="geometry" />
        </mxCell>
        <mxCell id="zkfFHV4jXpPFQw0GAbJ--3" value="Email Address" style="text;align=left;verticalAlign=top;spacingLeft=4;spacingRight=4;overflow=hidden;rotatable=0;points=[[0,0.5],[1,0.5]];portConstraint=eastwest;rounded=0;shadow=0;html=0;" parent="zkfFHV4jXpPFQw0GAbJ--0" vertex="1">
          <mxGeometry y="78" width="160" height="26" as="geometry" />
        </mxCell>
        <mxCell id="zkfFHV4jXpPFQw0GAbJ--4" value="" style="line;html=1;strokeWidth=1;align=left;verticalAlign=middle;spacingTop=-1;spacingLeft=3;spacingRight=3;rotatable=0;labelPosition=right;points=[];portConstraint=eastwest;" parent="zkfFHV4jXpPFQw0GAbJ--0" vertex="1">
          <mxGeometry y="104" width="160" height="8" as="geometry" />
        </mxCell>
        <mxCell id="zkfFHV4jXpPFQw0GAbJ--5" value="Purchase Parking Pass" style="text;align=left;verticalAlign=top;spacingLeft=4;spacingRight=4;overflow=hidden;rotatable=0;points=[[0,0.5],[1,0.5]];portConstraint=eastwest;" parent="zkfFHV4jXpPFQw0GAbJ--0" vertex="1">
          <mxGeometry y="112" width="160" height="26" as="geometry" />
        </mxCell>
        <mxCell id="zkfFHV4jXpPFQw0GAbJ--6" value="Student" style="swimlane;fontStyle=0;align=center;verticalAlign=top;childLayout=stackLayout;horizontal=1;startSize=26;horizontalStack=0;resizeParent=1;resizeLast=0;collapsible=1;marginBottom=0;rounded=0;shadow=0;strokeWidth=1;" parent="WIyWlLk6GJQsqaUBKTNV-1" vertex="1">
          <mxGeometry x="3850" y="610" width="160" height="138" as="geometry">
            <mxRectangle x="130" y="380" width="160" height="26" as="alternateBounds" />
          </mxGeometry>
        </mxCell>
        <mxCell id="zkfFHV4jXpPFQw0GAbJ--7" value="Student Number" style="text;align=left;verticalAlign=top;spacingLeft=4;spacingRight=4;overflow=hidden;rotatable=0;points=[[0,0.5],[1,0.5]];portConstraint=eastwest;" parent="zkfFHV4jXpPFQw0GAbJ--6" vertex="1">
          <mxGeometry y="26" width="160" height="26" as="geometry" />
        </mxCell>
        <mxCell id="zkfFHV4jXpPFQw0GAbJ--8" value="Average Mark" style="text;align=left;verticalAlign=top;spacingLeft=4;spacingRight=4;overflow=hidden;rotatable=0;points=[[0,0.5],[1,0.5]];portConstraint=eastwest;rounded=0;shadow=0;html=0;" parent="zkfFHV4jXpPFQw0GAbJ--6" vertex="1">
          <mxGeometry y="52" width="160" height="26" as="geometry" />
        </mxCell>
        <mxCell id="zkfFHV4jXpPFQw0GAbJ--9" value="" style="line;html=1;strokeWidth=1;align=left;verticalAlign=middle;spacingTop=-1;spacingLeft=3;spacingRight=3;rotatable=0;labelPosition=right;points=[];portConstraint=eastwest;" parent="zkfFHV4jXpPFQw0GAbJ--6" vertex="1">
          <mxGeometry y="78" width="160" height="8" as="geometry" />
        </mxCell>
        <mxCell id="zkfFHV4jXpPFQw0GAbJ--10" value="Is Eligibale To Enroll" style="text;align=left;verticalAlign=top;spacingLeft=4;spacingRight=4;overflow=hidden;rotatable=0;points=[[0,0.5],[1,0.5]];portConstraint=eastwest;fontStyle=4" parent="zkfFHV4jXpPFQw0GAbJ--6" vertex="1">
          <mxGeometry y="86" width="160" height="26" as="geometry" />
        </mxCell>
        <mxCell id="zkfFHV4jXpPFQw0GAbJ--11" value="Get Seminars Taken" style="text;align=left;verticalAlign=top;spacingLeft=4;spacingRight=4;overflow=hidden;rotatable=0;points=[[0,0.5],[1,0.5]];portConstraint=eastwest;" parent="zkfFHV4jXpPFQw0GAbJ--6" vertex="1">
          <mxGeometry y="112" width="160" height="26" as="geometry" />
        </mxCell>
        <mxCell id="zkfFHV4jXpPFQw0GAbJ--12" value="" style="endArrow=block;endSize=10;endFill=0;shadow=0;strokeWidth=1;rounded=0;edgeStyle=elbowEdgeStyle;elbow=vertical;" parent="WIyWlLk6GJQsqaUBKTNV-1" source="zkfFHV4jXpPFQw0GAbJ--6" target="zkfFHV4jXpPFQw0GAbJ--0" edge="1">
          <mxGeometry width="160" relative="1" as="geometry">
            <mxPoint x="2340" y="153" as="sourcePoint" />
            <mxPoint x="2340" y="153" as="targetPoint" />
          </mxGeometry>
        </mxCell>
        <mxCell id="zkfFHV4jXpPFQw0GAbJ--13" value="Professor" style="swimlane;fontStyle=0;align=center;verticalAlign=top;childLayout=stackLayout;horizontal=1;startSize=26;horizontalStack=0;resizeParent=1;resizeLast=0;collapsible=1;marginBottom=0;rounded=0;shadow=0;strokeWidth=1;" parent="WIyWlLk6GJQsqaUBKTNV-1" vertex="1">
          <mxGeometry x="4060" y="610" width="160" height="70" as="geometry">
            <mxRectangle x="340" y="380" width="170" height="26" as="alternateBounds" />
          </mxGeometry>
        </mxCell>
        <mxCell id="zkfFHV4jXpPFQw0GAbJ--14" value="Salary" style="text;align=left;verticalAlign=top;spacingLeft=4;spacingRight=4;overflow=hidden;rotatable=0;points=[[0,0.5],[1,0.5]];portConstraint=eastwest;" parent="zkfFHV4jXpPFQw0GAbJ--13" vertex="1">
          <mxGeometry y="26" width="160" height="26" as="geometry" />
        </mxCell>
        <mxCell id="zkfFHV4jXpPFQw0GAbJ--15" value="" style="line;html=1;strokeWidth=1;align=left;verticalAlign=middle;spacingTop=-1;spacingLeft=3;spacingRight=3;rotatable=0;labelPosition=right;points=[];portConstraint=eastwest;" parent="zkfFHV4jXpPFQw0GAbJ--13" vertex="1">
          <mxGeometry y="52" width="160" height="8" as="geometry" />
        </mxCell>
        <mxCell id="zkfFHV4jXpPFQw0GAbJ--16" value="" style="endArrow=block;endSize=10;endFill=0;shadow=0;strokeWidth=1;rounded=0;edgeStyle=elbowEdgeStyle;elbow=vertical;" parent="WIyWlLk6GJQsqaUBKTNV-1" source="zkfFHV4jXpPFQw0GAbJ--13" target="zkfFHV4jXpPFQw0GAbJ--0" edge="1">
          <mxGeometry width="160" relative="1" as="geometry">
            <mxPoint x="2350" y="323" as="sourcePoint" />
            <mxPoint x="2450" y="221" as="targetPoint" />
          </mxGeometry>
        </mxCell>
        <mxCell id="zkfFHV4jXpPFQw0GAbJ--17" value="Address" style="swimlane;fontStyle=0;align=center;verticalAlign=top;childLayout=stackLayout;horizontal=1;startSize=26;horizontalStack=0;resizeParent=1;resizeLast=0;collapsible=1;marginBottom=0;rounded=0;shadow=0;strokeWidth=1;" parent="WIyWlLk6GJQsqaUBKTNV-1" vertex="1">
          <mxGeometry x="4250" y="350" width="160" height="216" as="geometry">
            <mxRectangle x="550" y="140" width="160" height="26" as="alternateBounds" />
          </mxGeometry>
        </mxCell>
        <mxCell id="zkfFHV4jXpPFQw0GAbJ--18" value="Street" style="text;align=left;verticalAlign=top;spacingLeft=4;spacingRight=4;overflow=hidden;rotatable=0;points=[[0,0.5],[1,0.5]];portConstraint=eastwest;" parent="zkfFHV4jXpPFQw0GAbJ--17" vertex="1">
          <mxGeometry y="26" width="160" height="26" as="geometry" />
        </mxCell>
        <mxCell id="zkfFHV4jXpPFQw0GAbJ--19" value="City" style="text;align=left;verticalAlign=top;spacingLeft=4;spacingRight=4;overflow=hidden;rotatable=0;points=[[0,0.5],[1,0.5]];portConstraint=eastwest;rounded=0;shadow=0;html=0;" parent="zkfFHV4jXpPFQw0GAbJ--17" vertex="1">
          <mxGeometry y="52" width="160" height="26" as="geometry" />
        </mxCell>
        <mxCell id="zkfFHV4jXpPFQw0GAbJ--20" value="State" style="text;align=left;verticalAlign=top;spacingLeft=4;spacingRight=4;overflow=hidden;rotatable=0;points=[[0,0.5],[1,0.5]];portConstraint=eastwest;rounded=0;shadow=0;html=0;" parent="zkfFHV4jXpPFQw0GAbJ--17" vertex="1">
          <mxGeometry y="78" width="160" height="26" as="geometry" />
        </mxCell>
        <mxCell id="zkfFHV4jXpPFQw0GAbJ--21" value="Postal Code" style="text;align=left;verticalAlign=top;spacingLeft=4;spacingRight=4;overflow=hidden;rotatable=0;points=[[0,0.5],[1,0.5]];portConstraint=eastwest;rounded=0;shadow=0;html=0;" parent="zkfFHV4jXpPFQw0GAbJ--17" vertex="1">
          <mxGeometry y="104" width="160" height="26" as="geometry" />
        </mxCell>
        <mxCell id="zkfFHV4jXpPFQw0GAbJ--22" value="Country" style="text;align=left;verticalAlign=top;spacingLeft=4;spacingRight=4;overflow=hidden;rotatable=0;points=[[0,0.5],[1,0.5]];portConstraint=eastwest;rounded=0;shadow=0;html=0;" parent="zkfFHV4jXpPFQw0GAbJ--17" vertex="1">
          <mxGeometry y="130" width="160" height="26" as="geometry" />
        </mxCell>
        <mxCell id="zkfFHV4jXpPFQw0GAbJ--23" value="" style="line;html=1;strokeWidth=1;align=left;verticalAlign=middle;spacingTop=-1;spacingLeft=3;spacingRight=3;rotatable=0;labelPosition=right;points=[];portConstraint=eastwest;" parent="zkfFHV4jXpPFQw0GAbJ--17" vertex="1">
          <mxGeometry y="156" width="160" height="8" as="geometry" />
        </mxCell>
        <mxCell id="zkfFHV4jXpPFQw0GAbJ--24" value="Validate" style="text;align=left;verticalAlign=top;spacingLeft=4;spacingRight=4;overflow=hidden;rotatable=0;points=[[0,0.5],[1,0.5]];portConstraint=eastwest;" parent="zkfFHV4jXpPFQw0GAbJ--17" vertex="1">
          <mxGeometry y="164" width="160" height="26" as="geometry" />
        </mxCell>
        <mxCell id="zkfFHV4jXpPFQw0GAbJ--25" value="Output As Label" style="text;align=left;verticalAlign=top;spacingLeft=4;spacingRight=4;overflow=hidden;rotatable=0;points=[[0,0.5],[1,0.5]];portConstraint=eastwest;" parent="zkfFHV4jXpPFQw0GAbJ--17" vertex="1">
          <mxGeometry y="190" width="160" height="26" as="geometry" />
        </mxCell>
        <mxCell id="zkfFHV4jXpPFQw0GAbJ--26" value="" style="endArrow=open;shadow=0;strokeWidth=1;rounded=0;endFill=1;edgeStyle=elbowEdgeStyle;elbow=vertical;" parent="WIyWlLk6GJQsqaUBKTNV-1" source="zkfFHV4jXpPFQw0GAbJ--0" target="zkfFHV4jXpPFQw0GAbJ--17" edge="1">
          <mxGeometry x="0.5" y="41" relative="1" as="geometry">
            <mxPoint x="2520" y="142" as="sourcePoint" />
            <mxPoint x="2680" y="142" as="targetPoint" />
            <mxPoint x="-40" y="32" as="offset" />
          </mxGeometry>
        </mxCell>
        <mxCell id="zkfFHV4jXpPFQw0GAbJ--27" value="0..1" style="resizable=0;align=left;verticalAlign=bottom;labelBackgroundColor=none;fontSize=12;" parent="zkfFHV4jXpPFQw0GAbJ--26" connectable="0" vertex="1">
          <mxGeometry x="-1" relative="1" as="geometry">
            <mxPoint y="4" as="offset" />
          </mxGeometry>
        </mxCell>
        <mxCell id="zkfFHV4jXpPFQw0GAbJ--28" value="1" style="resizable=0;align=right;verticalAlign=bottom;labelBackgroundColor=none;fontSize=12;" parent="zkfFHV4jXpPFQw0GAbJ--26" connectable="0" vertex="1">
          <mxGeometry x="1" relative="1" as="geometry">
            <mxPoint x="-7" y="4" as="offset" />
          </mxGeometry>
        </mxCell>
        <mxCell id="zkfFHV4jXpPFQw0GAbJ--29" value="lives at" style="text;html=1;resizable=0;points=[];;align=center;verticalAlign=middle;labelBackgroundColor=none;rounded=0;shadow=0;strokeWidth=1;fontSize=12;" parent="zkfFHV4jXpPFQw0GAbJ--26" vertex="1" connectable="0">
          <mxGeometry x="0.5" y="49" relative="1" as="geometry">
            <mxPoint x="-38" y="40" as="offset" />
          </mxGeometry>
        </mxCell>
        <mxCell id="n5gccMW1pTss9SRz3Ln8-4" style="edgeStyle=orthogonalEdgeStyle;rounded=0;orthogonalLoop=1;jettySize=auto;html=1;exitX=0.5;exitY=1;exitDx=0;exitDy=0;dashed=1;strokeWidth=4;" parent="WIyWlLk6GJQsqaUBKTNV-1" source="n5gccMW1pTss9SRz3Ln8-2" edge="1">
          <mxGeometry relative="1" as="geometry">
            <mxPoint x="2340" y="3272" as="targetPoint" />
          </mxGeometry>
        </mxCell>
        <mxCell id="n5gccMW1pTss9SRz3Ln8-2" value="&lt;font style=&quot;font-size: 110px&quot;&gt;Class Diagramm SharingApp&lt;/font&gt;" style="text;html=1;strokeColor=none;fillColor=none;align=center;verticalAlign=middle;whiteSpace=wrap;rounded=0;" parent="WIyWlLk6GJQsqaUBKTNV-1" vertex="1">
          <mxGeometry x="1531" width="1620" height="310" as="geometry" />
        </mxCell>
        <mxCell id="n5gccMW1pTss9SRz3Ln8-5" style="edgeStyle=orthogonalEdgeStyle;rounded=0;orthogonalLoop=1;jettySize=auto;html=1;dashed=1;strokeWidth=4;" parent="WIyWlLk6GJQsqaUBKTNV-1" edge="1">
          <mxGeometry relative="1" as="geometry">
            <mxPoint x="270" y="3260" as="targetPoint" />
            <mxPoint x="270" y="320" as="sourcePoint" />
          </mxGeometry>
        </mxCell>
        <mxCell id="n5gccMW1pTss9SRz3Ln8-6" value="&lt;div style=&quot;font-size: 72px&quot;&gt;&lt;font style=&quot;font-size: 72px&quot;&gt;Presentation&lt;/font&gt;&lt;/div&gt;" style="text;html=1;strokeColor=none;fillColor=none;align=center;verticalAlign=middle;whiteSpace=wrap;rounded=0;rotation=-90;" parent="WIyWlLk6GJQsqaUBKTNV-1" vertex="1">
          <mxGeometry x="-190" y="710" width="655" height="140" as="geometry" />
        </mxCell>
        <mxCell id="n5gccMW1pTss9SRz3Ln8-7" value="&lt;font style=&quot;font-size: 72px&quot;&gt;Domain&lt;/font&gt;" style="text;html=1;strokeColor=none;fillColor=none;align=center;verticalAlign=middle;whiteSpace=wrap;rounded=0;rotation=-90;" parent="WIyWlLk6GJQsqaUBKTNV-1" vertex="1">
          <mxGeometry x="-200" y="1640" width="655" height="140" as="geometry" />
        </mxCell>
        <mxCell id="n5gccMW1pTss9SRz3Ln8-8" value="&lt;font style=&quot;font-size: 72px&quot;&gt;Persistence&lt;/font&gt;" style="text;html=1;strokeColor=none;fillColor=none;align=center;verticalAlign=middle;whiteSpace=wrap;rounded=0;rotation=-90;" parent="WIyWlLk6GJQsqaUBKTNV-1" vertex="1">
          <mxGeometry x="-190" y="2610" width="655" height="140" as="geometry" />
        </mxCell>
        <mxCell id="n5gccMW1pTss9SRz3Ln8-10" style="edgeStyle=orthogonalEdgeStyle;rounded=0;orthogonalLoop=1;jettySize=auto;html=1;exitX=0.5;exitY=1;exitDx=0;exitDy=0;dashed=1;strokeWidth=4;" parent="WIyWlLk6GJQsqaUBKTNV-1" edge="1">
          <mxGeometry relative="1" as="geometry">
            <mxPoint x="4630" y="1240" as="targetPoint" />
            <mxPoint x="147.4000000000001" y="1240" as="sourcePoint" />
          </mxGeometry>
        </mxCell>
        <mxCell id="n5gccMW1pTss9SRz3Ln8-11" style="edgeStyle=orthogonalEdgeStyle;rounded=0;orthogonalLoop=1;jettySize=auto;html=1;exitX=0.5;exitY=1;exitDx=0;exitDy=0;dashed=1;strokeWidth=4;" parent="WIyWlLk6GJQsqaUBKTNV-1" edge="1">
          <mxGeometry relative="1" as="geometry">
            <mxPoint x="4612.6" y="2260" as="targetPoint" />
            <mxPoint x="129.99999999999963" y="2260" as="sourcePoint" />
          </mxGeometry>
        </mxCell>
        <mxCell id="n5gccMW1pTss9SRz3Ln8-21" style="edgeStyle=orthogonalEdgeStyle;rounded=0;orthogonalLoop=1;jettySize=auto;html=1;entryX=0.5;entryY=1;entryDx=0;entryDy=0;dashed=1;strokeWidth=4;" parent="WIyWlLk6GJQsqaUBKTNV-1" source="n5gccMW1pTss9SRz3Ln8-16" target="n5gccMW1pTss9SRz3Ln8-20" edge="1">
          <mxGeometry relative="1" as="geometry" />
        </mxCell>
        <mxCell id="n5gccMW1pTss9SRz3Ln8-16" value="LoginViewController" style="swimlane;fontStyle=1;align=center;verticalAlign=top;childLayout=stackLayout;horizontal=1;startSize=26;horizontalStack=0;resizeParent=1;resizeParentMax=0;resizeLast=0;collapsible=1;marginBottom=0;" parent="WIyWlLk6GJQsqaUBKTNV-1" vertex="1">
          <mxGeometry x="610" y="540" width="320" height="280" as="geometry" />
        </mxCell>
        <mxCell id="n5gccMW1pTss9SRz3Ln8-17" value="private SharingApp sharingApp&#xa;private TextField username;&#xa;private PasswordField userPassword;&#xa;private Stage dialogStage;&#xa;private boolean loginValid&#xa;" style="text;strokeColor=none;fillColor=none;align=left;verticalAlign=top;spacingLeft=4;spacingRight=4;overflow=hidden;rotatable=0;points=[[0,0.5],[1,0.5]];portConstraint=eastwest;" parent="n5gccMW1pTss9SRz3Ln8-16" vertex="1">
          <mxGeometry y="26" width="320" height="114" as="geometry" />
        </mxCell>
        <mxCell id="n5gccMW1pTss9SRz3Ln8-18" value="" style="line;strokeWidth=1;fillColor=none;align=left;verticalAlign=middle;spacingTop=-1;spacingLeft=3;spacingRight=3;rotatable=0;labelPosition=right;points=[];portConstraint=eastwest;" parent="n5gccMW1pTss9SRz3Ln8-16" vertex="1">
          <mxGeometry y="140" width="320" height="8" as="geometry" />
        </mxCell>
        <mxCell id="n5gccMW1pTss9SRz3Ln8-19" value="public void setSharingApp(SharingApp)&#xa;private void initialize()&#xa;private void setDialogStage(Stage)&#xa;private void handleLogin()&#xa;private void handleCancel()&#xa;private void handleSignUp()&#xa;private boolean isInputValid()&#xa;public boolean isLoginValid()&#xa;" style="text;strokeColor=none;fillColor=none;align=left;verticalAlign=top;spacingLeft=4;spacingRight=4;overflow=hidden;rotatable=0;points=[[0,0.5],[1,0.5]];portConstraint=eastwest;" parent="n5gccMW1pTss9SRz3Ln8-16" vertex="1">
          <mxGeometry y="148" width="320" height="132" as="geometry" />
        </mxCell>
        <mxCell id="n5gccMW1pTss9SRz3Ln8-20" value="LoginView (FXML)" style="html=1;" parent="WIyWlLk6GJQsqaUBKTNV-1" vertex="1">
          <mxGeometry x="692.5" y="380" width="155" height="60" as="geometry" />
        </mxCell>
        <mxCell id="n5gccMW1pTss9SRz3Ln8-27" style="edgeStyle=orthogonalEdgeStyle;rounded=0;orthogonalLoop=1;jettySize=auto;html=1;entryX=0.5;entryY=1;entryDx=0;entryDy=0;dashed=1;strokeWidth=4;" parent="WIyWlLk6GJQsqaUBKTNV-1" source="n5gccMW1pTss9SRz3Ln8-22" target="n5gccMW1pTss9SRz3Ln8-26" edge="1">
          <mxGeometry relative="1" as="geometry" />
        </mxCell>
        <mxCell id="n5gccMW1pTss9SRz3Ln8-22" value="RootLayoutController" style="swimlane;fontStyle=1;align=center;verticalAlign=top;childLayout=stackLayout;horizontal=1;startSize=26;horizontalStack=0;resizeParent=1;resizeParentMax=0;resizeLast=0;collapsible=1;marginBottom=0;" parent="WIyWlLk6GJQsqaUBKTNV-1" vertex="1">
          <mxGeometry x="360" y="540" width="220" height="200" as="geometry" />
        </mxCell>
        <mxCell id="n5gccMW1pTss9SRz3Ln8-23" value="private SharingApp sharingApp;" style="text;strokeColor=none;fillColor=none;align=left;verticalAlign=top;spacingLeft=4;spacingRight=4;overflow=hidden;rotatable=0;points=[[0,0.5],[1,0.5]];portConstraint=eastwest;" parent="n5gccMW1pTss9SRz3Ln8-22" vertex="1">
          <mxGeometry y="26" width="220" height="54" as="geometry" />
        </mxCell>
        <mxCell id="n5gccMW1pTss9SRz3Ln8-24" value="" style="line;strokeWidth=1;fillColor=none;align=left;verticalAlign=middle;spacingTop=-1;spacingLeft=3;spacingRight=3;rotatable=0;labelPosition=right;points=[];portConstraint=eastwest;" parent="n5gccMW1pTss9SRz3Ln8-22" vertex="1">
          <mxGeometry y="80" width="220" height="8" as="geometry" />
        </mxCell>
        <mxCell id="n5gccMW1pTss9SRz3Ln8-25" value="public void setSharingApp(SharingApp)&#xa;private void handleSave()&#xa;private void handleAbout()&#xa;private void handleExit()&#xa;" style="text;strokeColor=none;fillColor=none;align=left;verticalAlign=top;spacingLeft=4;spacingRight=4;overflow=hidden;rotatable=0;points=[[0,0.5],[1,0.5]];portConstraint=eastwest;" parent="n5gccMW1pTss9SRz3Ln8-22" vertex="1">
          <mxGeometry y="88" width="220" height="112" as="geometry" />
        </mxCell>
        <mxCell id="n5gccMW1pTss9SRz3Ln8-26" value="&lt;div&gt;RootLayout(FXML)&lt;/div&gt;&lt;div&gt;&lt;br&gt;&lt;/div&gt;(Main Layout of SharingApp)" style="html=1;" parent="WIyWlLk6GJQsqaUBKTNV-1" vertex="1">
          <mxGeometry x="381.25" y="380" width="177.5" height="80" as="geometry" />
        </mxCell>
        <mxCell id="n5gccMW1pTss9SRz3Ln8-28" value="&lt;font style=&quot;font-size: 72px&quot;&gt;Example of Class Diagram&lt;/font&gt;" style="text;html=1;strokeColor=none;fillColor=none;align=center;verticalAlign=middle;whiteSpace=wrap;rounded=0;" parent="WIyWlLk6GJQsqaUBKTNV-1" vertex="1">
          <mxGeometry x="3740" y="270" width="870" height="20" as="geometry" />
        </mxCell>
        <mxCell id="NbHTNahy-XvnpAPskr0h-0" value="ItemListOverview (FXML)" style="html=1;" parent="WIyWlLk6GJQsqaUBKTNV-1" vertex="1">
          <mxGeometry x="1032.5" y="380" width="155" height="60" as="geometry" />
        </mxCell>
        <mxCell id="NbHTNahy-XvnpAPskr0h-7" style="edgeStyle=orthogonalEdgeStyle;rounded=0;orthogonalLoop=1;jettySize=auto;html=1;entryX=0.5;entryY=1;entryDx=0;entryDy=0;dashed=1;strokeWidth=4;" parent="WIyWlLk6GJQsqaUBKTNV-1" source="NbHTNahy-XvnpAPskr0h-1" target="NbHTNahy-XvnpAPskr0h-0" edge="1">
          <mxGeometry relative="1" as="geometry" />
        </mxCell>
        <mxCell id="NbHTNahy-XvnpAPskr0h-1" value="ItemListOverviewController" style="swimlane;fontStyle=1;align=center;verticalAlign=top;childLayout=stackLayout;horizontal=1;startSize=26;horizontalStack=0;resizeParent=1;resizeParentMax=0;resizeLast=0;collapsible=1;marginBottom=0;" parent="WIyWlLk6GJQsqaUBKTNV-1" vertex="1">
          <mxGeometry x="960" y="540" width="320" height="350" as="geometry" />
        </mxCell>
        <mxCell id="NbHTNahy-XvnpAPskr0h-2" value="private SharingApp sharingApp&#xa;private TableView&lt;Item&gt; itemTable;&#xa;private TableColumn&lt;Item, String&gt; itemNameColumn;&#xa;private TableColumn&lt;Item, String&gt; itemOwnerColumn;&#xa;private Label itemNameLabel;&#xa;private Label itemOwnerLabel;&#xa;private Label itemOwnerMailLabel;&#xa;private Label itemIDLabel;&#xa;private Label itemAvailableLabel;&#xa;private Label itemRating;&#xa;private Label itemDescription&#xa;private Label itemLentFrom&#xa;private Label item Lent Til;&#xa;private Stage dialogStage;&#xa;&#xa;" style="text;strokeColor=none;fillColor=none;align=left;verticalAlign=top;spacingLeft=4;spacingRight=4;overflow=hidden;rotatable=0;points=[[0,0.5],[1,0.5]];portConstraint=eastwest;" parent="NbHTNahy-XvnpAPskr0h-1" vertex="1">
          <mxGeometry y="26" width="320" height="214" as="geometry" />
        </mxCell>
        <mxCell id="NbHTNahy-XvnpAPskr0h-3" value="" style="line;strokeWidth=1;fillColor=none;align=left;verticalAlign=middle;spacingTop=-1;spacingLeft=3;spacingRight=3;rotatable=0;labelPosition=right;points=[];portConstraint=eastwest;" parent="NbHTNahy-XvnpAPskr0h-1" vertex="1">
          <mxGeometry y="240" width="320" height="8" as="geometry" />
        </mxCell>
        <mxCell id="NbHTNahy-XvnpAPskr0h-4" value="public void setSharingApp(SharingApp)&#xa;private void initialize()&#xa;private void showItemDetails();&#xa;private void handleNew()&#xa;private void handleEdit()&#xa;private void handleDelete()&#xa;" style="text;strokeColor=none;fillColor=none;align=left;verticalAlign=top;spacingLeft=4;spacingRight=4;overflow=hidden;rotatable=0;points=[[0,0.5],[1,0.5]];portConstraint=eastwest;" parent="NbHTNahy-XvnpAPskr0h-1" vertex="1">
          <mxGeometry y="248" width="320" height="102" as="geometry" />
        </mxCell>
        <mxCell id="NbHTNahy-XvnpAPskr0h-13" style="edgeStyle=orthogonalEdgeStyle;rounded=0;orthogonalLoop=1;jettySize=auto;html=1;entryX=0.5;entryY=1;entryDx=0;entryDy=0;entryPerimeter=0;dashed=1;strokeColor=#000000;strokeWidth=4;" parent="WIyWlLk6GJQsqaUBKTNV-1" source="NbHTNahy-XvnpAPskr0h-8" target="NbHTNahy-XvnpAPskr0h-4" edge="1">
          <mxGeometry relative="1" as="geometry" />
        </mxCell>
        <mxCell id="7Ww949HbS-oUmsPyWldI-16" style="edgeStyle=orthogonalEdgeStyle;rounded=0;orthogonalLoop=1;jettySize=auto;html=1;dashed=1;strokeWidth=4;" parent="WIyWlLk6GJQsqaUBKTNV-1" source="NbHTNahy-XvnpAPskr0h-8" target="7Ww949HbS-oUmsPyWldI-14" edge="1">
          <mxGeometry relative="1" as="geometry">
            <Array as="points">
              <mxPoint x="530" y="1100" />
              <mxPoint x="1430" y="1100" />
            </Array>
          </mxGeometry>
        </mxCell>
        <mxCell id="NbHTNahy-XvnpAPskr0h-8" value="ItemFxView" style="swimlane;fontStyle=1;align=center;verticalAlign=top;childLayout=stackLayout;horizontal=1;startSize=26;horizontalStack=0;resizeParent=1;resizeParentMax=0;resizeLast=0;collapsible=1;marginBottom=0;" parent="WIyWlLk6GJQsqaUBKTNV-1" vertex="1">
          <mxGeometry x="330" y="1300" width="350" height="670" as="geometry" />
        </mxCell>
        <mxCell id="NbHTNahy-XvnpAPskr0h-9" value="private final StringProperty itemName;&#xa;private final IntegerProperty itemID;&#xa;private final StringProperty itemOwner;&#xa;private final StringProperty itemOwnerMail;&#xa;private final ObjectProperty&lt;LocalDate&gt; itemCreateDate;&#xa;private final BooleanProperty itemAvailable;&#xa;private final DoubleProperty itemRating;&#xa;private final StringProperty itemDescription;&#xa;private final ObjectProperty&lt;LocalDate&gt; itemLentFrom;&#xa;private final ObjectProperty&lt;LocalDate&gt; itementTill;&#xa;&#xa;&#xa;" style="text;strokeColor=none;fillColor=none;align=left;verticalAlign=top;spacingLeft=4;spacingRight=4;overflow=hidden;rotatable=0;points=[[0,0.5],[1,0.5]];portConstraint=eastwest;" parent="NbHTNahy-XvnpAPskr0h-8" vertex="1">
          <mxGeometry y="26" width="350" height="154" as="geometry" />
        </mxCell>
        <mxCell id="NbHTNahy-XvnpAPskr0h-10" value="" style="line;strokeWidth=1;fillColor=none;align=left;verticalAlign=middle;spacingTop=-1;spacingLeft=3;spacingRight=3;rotatable=0;labelPosition=right;points=[];portConstraint=eastwest;" parent="NbHTNahy-XvnpAPskr0h-8" vertex="1">
          <mxGeometry y="180" width="350" height="8" as="geometry" />
        </mxCell>
        <mxCell id="NbHTNahy-XvnpAPskr0h-11" value="public ItemFxView(ItemToShare)&#xa;&#xa;&#xa;public String getItemName()public void setItemName(String)&#xa;public StringProperty itemNameProperty()&#xa;&#xa;public int getItemID()&#xa;&#xa;public String getItemOwnerMail()&#xa;public StringProperty intemOwnerMailProperty()&#xa;&#xa;public String getItemOwner()&#xa;public StringProperty intemOwnerProperty()&#xa;public LocalDate getItemCreateDate()&#xa;public void setITemCreateDate()&#xa;public ObjectProperty&lt;LocalDate&gt; itemCreateDateProperty()&#xa;&#xa;public boolean getItemAvailable()&#xa;public void setItemAvailable(boolean)&#xa;public String getItemAvailavleString()&#xa;&#xa;public Double getItemRating()&#xa;public void setItemRating()&#xa;public DoubleProperty getItemRatingProperty()&#xa;&#xa;public String getItemDescription()&#xa;public void setItemDescription()&#xa;public StringProperty getItemDescriptionProperty()&#xa;&#xa;public LocalDate getItemLentFrom()&#xa;public void setItemLentFrom()&#xa;public ObjectProperty&lt;LocalDate&gt; itemLentFromPorperty()&#xa;&#xa;public LocalDate getItemLentTill()&#xa;public void setItemLentTill()public ObjectProperty&lt;LocalDate&gt; itemLentTillPorperty()&#xa;" style="text;strokeColor=none;fillColor=none;align=left;verticalAlign=top;spacingLeft=4;spacingRight=4;overflow=hidden;rotatable=0;points=[[0,0.5],[1,0.5]];portConstraint=eastwest;" parent="NbHTNahy-XvnpAPskr0h-8" vertex="1">
          <mxGeometry y="188" width="350" height="482" as="geometry" />
        </mxCell>
        <mxCell id="7Ww949HbS-oUmsPyWldI-4" style="edgeStyle=orthogonalEdgeStyle;rounded=0;orthogonalLoop=1;jettySize=auto;html=1;entryX=0.495;entryY=1.002;entryDx=0;entryDy=0;entryPerimeter=0;strokeWidth=4;dashed=1;" parent="WIyWlLk6GJQsqaUBKTNV-1" source="7Ww949HbS-oUmsPyWldI-0" target="NbHTNahy-XvnpAPskr0h-11" edge="1">
          <mxGeometry relative="1" as="geometry" />
        </mxCell>
        <mxCell id="7Ww949HbS-oUmsPyWldI-0" value="LocalDateAdapter" style="swimlane;fontStyle=1;align=center;verticalAlign=top;childLayout=stackLayout;horizontal=1;startSize=26;horizontalStack=0;resizeParent=1;resizeParentMax=0;resizeLast=0;collapsible=1;marginBottom=0;" parent="WIyWlLk6GJQsqaUBKTNV-1" vertex="1">
          <mxGeometry x="395" y="2030" width="220" height="126" as="geometry" />
        </mxCell>
        <mxCell id="7Ww949HbS-oUmsPyWldI-2" value="" style="line;strokeWidth=1;fillColor=none;align=left;verticalAlign=middle;spacingTop=-1;spacingLeft=3;spacingRight=3;rotatable=0;labelPosition=right;points=[];portConstraint=eastwest;" parent="7Ww949HbS-oUmsPyWldI-0" vertex="1">
          <mxGeometry y="26" width="220" height="44" as="geometry" />
        </mxCell>
        <mxCell id="7Ww949HbS-oUmsPyWldI-3" value="public LocalDate unmarshal(String)&#xa;public String marshal(LocalDate)&#xa;" style="text;strokeColor=none;fillColor=none;align=left;verticalAlign=top;spacingLeft=4;spacingRight=4;overflow=hidden;rotatable=0;points=[[0,0.5],[1,0.5]];portConstraint=eastwest;" parent="7Ww949HbS-oUmsPyWldI-0" vertex="1">
          <mxGeometry y="70" width="220" height="56" as="geometry" />
        </mxCell>
        <mxCell id="7Ww949HbS-oUmsPyWldI-9" style="edgeStyle=orthogonalEdgeStyle;rounded=0;orthogonalLoop=1;jettySize=auto;html=1;dashed=1;strokeWidth=4;exitX=0.5;exitY=0;exitDx=0;exitDy=0;" parent="WIyWlLk6GJQsqaUBKTNV-1" source="7Ww949HbS-oUmsPyWldI-5" target="NbHTNahy-XvnpAPskr0h-4" edge="1">
          <mxGeometry relative="1" as="geometry">
            <mxPoint x="1111" y="850" as="targetPoint" />
            <Array as="points">
              <mxPoint x="845" y="1160" />
              <mxPoint x="1030" y="1160" />
            </Array>
          </mxGeometry>
        </mxCell>
        <mxCell id="7Ww949HbS-oUmsPyWldI-17" style="edgeStyle=orthogonalEdgeStyle;rounded=0;orthogonalLoop=1;jettySize=auto;html=1;dashed=1;strokeWidth=4;" parent="WIyWlLk6GJQsqaUBKTNV-1" source="7Ww949HbS-oUmsPyWldI-5" target="7Ww949HbS-oUmsPyWldI-14" edge="1">
          <mxGeometry relative="1" as="geometry">
            <mxPoint x="1489.9999999999995" y="900" as="targetPoint" />
            <Array as="points">
              <mxPoint x="870" y="1200" />
              <mxPoint x="1490" y="1200" />
            </Array>
          </mxGeometry>
        </mxCell>
        <mxCell id="7Ww949HbS-oUmsPyWldI-5" value="DateUtil" style="swimlane;fontStyle=1;align=center;verticalAlign=top;childLayout=stackLayout;horizontal=1;startSize=26;horizontalStack=0;resizeParent=1;resizeParentMax=0;resizeLast=0;collapsible=1;marginBottom=0;" parent="WIyWlLk6GJQsqaUBKTNV-1" vertex="1">
          <mxGeometry x="702.5" y="1300" width="330" height="148" as="geometry" />
        </mxCell>
        <mxCell id="7Ww949HbS-oUmsPyWldI-6" value="private static final String DATE_PATTERN;&#xa;private static final DateTimeFormatter DATE_FORMATTER;&#xa;&#xa;" style="text;strokeColor=none;fillColor=none;align=left;verticalAlign=top;spacingLeft=4;spacingRight=4;overflow=hidden;rotatable=0;points=[[0,0.5],[1,0.5]];portConstraint=eastwest;" parent="7Ww949HbS-oUmsPyWldI-5" vertex="1">
          <mxGeometry y="26" width="330" height="44" as="geometry" />
        </mxCell>
        <mxCell id="7Ww949HbS-oUmsPyWldI-7" value="" style="line;strokeWidth=1;fillColor=none;align=left;verticalAlign=middle;spacingTop=-1;spacingLeft=3;spacingRight=3;rotatable=0;labelPosition=right;points=[];portConstraint=eastwest;" parent="7Ww949HbS-oUmsPyWldI-5" vertex="1">
          <mxGeometry y="70" width="330" height="8" as="geometry" />
        </mxCell>
        <mxCell id="7Ww949HbS-oUmsPyWldI-8" value="public static String format(LocalDate)&#xa;public static LocalDate parse(String)&#xa;public static boolean validDate(String)&#xa;&#xa;" style="text;strokeColor=none;fillColor=none;align=left;verticalAlign=top;spacingLeft=4;spacingRight=4;overflow=hidden;rotatable=0;points=[[0,0.5],[1,0.5]];portConstraint=eastwest;" parent="7Ww949HbS-oUmsPyWldI-5" vertex="1">
          <mxGeometry y="78" width="330" height="70" as="geometry" />
        </mxCell>
        <mxCell id="7Ww949HbS-oUmsPyWldI-10" value="EditItemDialog (FXML)" style="html=1;" parent="WIyWlLk6GJQsqaUBKTNV-1" vertex="1">
          <mxGeometry x="1356" y="380" width="155" height="60" as="geometry" />
        </mxCell>
        <mxCell id="7Ww949HbS-oUmsPyWldI-15" style="edgeStyle=orthogonalEdgeStyle;rounded=0;orthogonalLoop=1;jettySize=auto;html=1;entryX=0.5;entryY=1;entryDx=0;entryDy=0;dashed=1;strokeWidth=4;" parent="WIyWlLk6GJQsqaUBKTNV-1" source="7Ww949HbS-oUmsPyWldI-11" target="7Ww949HbS-oUmsPyWldI-10" edge="1">
          <mxGeometry relative="1" as="geometry" />
        </mxCell>
        <mxCell id="7Ww949HbS-oUmsPyWldI-11" value="EditItemDialogController" style="swimlane;fontStyle=1;align=center;verticalAlign=top;childLayout=stackLayout;horizontal=1;startSize=26;horizontalStack=0;resizeParent=1;resizeParentMax=0;resizeLast=0;collapsible=1;marginBottom=0;" parent="WIyWlLk6GJQsqaUBKTNV-1" vertex="1">
          <mxGeometry x="1303.5" y="540" width="260" height="330" as="geometry" />
        </mxCell>
        <mxCell id="7Ww949HbS-oUmsPyWldI-12" value="private TextField itemNameField;&#xa;private TextField dateCreatedField;&#xa;private TextArea itemDescriptionField;&#xa;private TextField isItemLentFIeld;&#xa;private TextField itemRatingField;&#xa;private TextField itemLentFromField;&#xa;private TextField itemLentTillField;&#xa;private Stage dialogStage;&#xa;private ItemFxView item;&#xa;private boolean okClicked;&#xa;" style="text;strokeColor=none;fillColor=none;align=left;verticalAlign=top;spacingLeft=4;spacingRight=4;overflow=hidden;rotatable=0;points=[[0,0.5],[1,0.5]];portConstraint=eastwest;" parent="7Ww949HbS-oUmsPyWldI-11" vertex="1">
          <mxGeometry y="26" width="260" height="174" as="geometry" />
        </mxCell>
        <mxCell id="7Ww949HbS-oUmsPyWldI-13" value="" style="line;strokeWidth=1;fillColor=none;align=left;verticalAlign=middle;spacingTop=-1;spacingLeft=3;spacingRight=3;rotatable=0;labelPosition=right;points=[];portConstraint=eastwest;" parent="7Ww949HbS-oUmsPyWldI-11" vertex="1">
          <mxGeometry y="200" width="260" height="8" as="geometry" />
        </mxCell>
        <mxCell id="7Ww949HbS-oUmsPyWldI-14" value="public void setDialogStage(Stage)&#xa;private void initialize()&#xa;public void setItem(ItemFxView)&#xa;private void handleOk()&#xa;private void handleCancel()&#xa;public boolean isOkClicked()&#xa;private boolean isInputValid()&#xa;&#xa;" style="text;strokeColor=none;fillColor=none;align=left;verticalAlign=top;spacingLeft=4;spacingRight=4;overflow=hidden;rotatable=0;points=[[0,0.5],[1,0.5]];portConstraint=eastwest;" parent="7Ww949HbS-oUmsPyWldI-11" vertex="1">
          <mxGeometry y="208" width="260" height="122" as="geometry" />
        </mxCell>
      </root>
    </mxGraphModel>
  </diagram>
</mxfile>
